HIERARCHY
ROOT joint_Root
{
	OFFSET 0.0 0.0 0.0
	CHANNELS 6 Xposition Yposition Zposition Zrotation Xrotation Yrotation 
	JOINT Hips
	{
		OFFSET 4.5925 91.4895 -427.239
		CHANNELS 6 Xposition Yposition Zposition Zrotation Xrotation Yrotation 
		JOINT Spine
		{
			OFFSET 15.7357 0.0 0.0
			CHANNELS 6 Xposition Yposition Zposition Zrotation Xrotation Yrotation 
			JOINT Chest
			{
				OFFSET 8.98455 -0.406207 0.0
				CHANNELS 6 Xposition Yposition Zposition Zrotation Xrotation Yrotation 
				JOINT Neck
				{
					OFFSET 16.3773 0.0 0.0
					CHANNELS 6 Xposition Yposition Zposition Zrotation Xrotation Yrotation 
					JOINT Head
					{
						OFFSET 6.45672 0.0 0.0
						CHANNELS 6 Xposition Yposition Zposition Zrotation Xrotation Yrotation 
						End Site
						{
							OFFSET 0.0 0.0 0.0
						}
					}
				}
				JOINT Shoulder_L
				{
					OFFSET 12.9942 -0.242716 4.98039
					CHANNELS 6 Xposition Yposition Zposition Zrotation Xrotation Yrotation 
					JOINT UpperArm_L
					{
						OFFSET 5.34809 0.0 0.0
						CHANNELS 6 Xposition Yposition Zposition Zrotation Xrotation Yrotation 
						JOINT LowerArm_L
						{
							OFFSET 24.3286 1.87007e-05 0.0
							CHANNELS 6 Xposition Yposition Zposition Zrotation Xrotation Yrotation 
							JOINT Hand_L
							{
								OFFSET 22.2916 0.0 0.0
								CHANNELS 6 Xposition Yposition Zposition Zrotation Xrotation Yrotation 
								End Site
								{
									OFFSET 0.0 0.0 0.0
								}
							}
						}
					}
				}
				JOINT Shoulder_R
				{
					OFFSET 12.9945 -0.242716 -4.98039
					CHANNELS 6 Xposition Yposition Zposition Zrotation Xrotation Yrotation 
					JOINT UpperArm_R
					{
						OFFSET -5.34813 0.0 0.0
						CHANNELS 6 Xposition Yposition Zposition Zrotation Xrotation Yrotation 
						JOINT LowerArm_R
						{
							OFFSET -24.3289 0.000322201 0.0
							CHANNELS 6 Xposition Yposition Zposition Zrotation Xrotation Yrotation 
							JOINT Hand_R
							{
								OFFSET -22.2915 -0.000108084 0.0
								CHANNELS 6 Xposition Yposition Zposition Zrotation Xrotation Yrotation 
								End Site
								{
									OFFSET 0.0 0.0 0.0
								}
							}
						}
					}
				}
			}
		}
		JOINT UpperLeg_L
		{
			OFFSET -2.19248 -6.46944 0.0
			CHANNELS 6 Xposition Yposition Zposition Zrotation Xrotation Yrotation 
			JOINT LowerLeg_L
			{
				OFFSET 39.0811 0.0 -1.23785e-05
				CHANNELS 6 Xposition Yposition Zposition Zrotation Xrotation Yrotation 
				JOINT Foot_L
				{
					OFFSET 40.9854 0.0 -1.26872e-05
					CHANNELS 6 Xposition Yposition Zposition Zrotation Xrotation Yrotation 
					JOINT Toes_L
					{
						OFFSET 11.7543 0.0 0.0
						CHANNELS 6 Xposition Yposition Zposition Zrotation Xrotation Yrotation 
						End Site
						{
							OFFSET 0.0 0.0 0.0
						}
					}
				}
			}
		}
		JOINT UpperLeg_R
		{
			OFFSET -2.19251 6.46944 0.0
			CHANNELS 6 Xposition Yposition Zposition Zrotation Xrotation Yrotation 
			JOINT LowerLeg_R
			{
				OFFSET -39.0811 -0.00228153 -0.0401928
				CHANNELS 6 Xposition Yposition Zposition Zrotation Xrotation Yrotation 
				JOINT Foot_R
				{
					OFFSET -40.9854 0.0 0.0
					CHANNELS 6 Xposition Yposition Zposition Zrotation Xrotation Yrotation 
					JOINT Toes_R
					{
						OFFSET -11.7543 0.0 0.0
						CHANNELS 6 Xposition Yposition Zposition Zrotation Xrotation Yrotation 
						End Site
						{
							OFFSET 0.0 0.0 0.0
						}
					}
				}
			}
		}
	}
}
MOTION
Frames:	6
Frame Time:	0.0333333
0.000000 0.000000 0.000000 0.000000 0.000000 -0.000000 -5.344980 91.162400 -2.486700 85.238100 -3.679390 6.354170 15.735700 0.000005 -0.000001 72.352100 84.093200 -76.934500 8.984550 -0.406207 -0.000000 3.377080 -3.402270 -9.056070 16.377300 -0.000001 -0.000001 1.187310 -0.578089 2.309200 6.456720 -0.000001 -0.000000 -1.073800 2.815700 5.263860 12.994200 -0.242716 4.980390 -90.998400 2.880780 -70.875700 5.348090 -0.000007 -0.000001 -63.011200 -0.394465 -0.803630 24.328600 0.000019 0.000005 7.481120 17.436500 -23.664700 22.291600 -0.000001 0.000005 12.562400 5.223590 2.120790 12.994500 -0.242716 -4.980390 92.804100 -9.425550 -73.350300 -5.348130 -0.000001 -0.000004 -34.301400 -66.619600 -54.215600 -24.328900 0.000322 -0.000009 -20.042000 -31.458700 -34.956000 -22.291500 -0.000108 -0.000004 21.207900 5.290660 0.343489 -2.192480 -6.469440 -0.000000 -166.448000 -15.667700 -4.105780 39.081100 -0.000007 -0.000012 -0.163109 0.280162 30.208000 40.985400 -0.000006 -0.000013 -2.941670 9.460370 -68.009000 11.754300 -0.000000 0.000003 -0.000190 -0.001773 -16.644500 -2.192510 6.469440 -0.000001 -177.208000 21.898200 178.008000 -39.081100 -0.002282 -0.040193 -0.010522 0.028008 26.282300 -40.985400 0.000008 0.000006 8.444590 13.643000 -69.196100 -11.754300 -0.000006 -0.000006 -0.001012 -0.015571 -17.206400
0.000000 0.000000 0.000000 0.000000 0.000000 -0.000000 -5.334240 91.287800 -2.460380 85.452200 -2.968170 6.063180 15.735700 0.000005 -0.000001 73.014000 84.241100 -77.197600 8.984550 -0.406207 -0.000000 3.150740 -3.193060 -8.271730 16.377300 -0.000001 -0.000001 1.384190 -1.327930 3.695150 6.456720 -0.000001 -0.000000 -1.088630 2.770620 4.602350 12.994200 -0.242716 4.980390 -90.934000 2.711780 -70.987000 5.348090 -0.000007 -0.000001 -63.448500 -0.394755 -0.935632 24.328600 0.000019 0.000005 7.632050 17.396500 -24.140900 22.291600 -0.000001 0.000005 12.958900 5.224800 2.090010 12.994500 -0.242716 -4.980390 94.107100 -12.616200 -71.802800 -5.348130 -0.000001 -0.000004 -23.363800 -73.955800 -52.937000 -24.328900 0.000322 -0.000009 -18.496400 -22.927900 -40.662400 -22.291500 -0.000108 -0.000004 23.445900 5.444410 -4.412910 -2.192480 -6.469440 -0.000000 -166.768000 -15.787400 -4.192160 39.081100 -0.000007 -0.000012 -0.152640 0.270497 29.436100 40.985400 -0.000006 -0.000013 -2.803550 10.113800 -67.551600 11.754300 -0.000000 0.000003 -0.000160 -0.001530 -16.635600 -2.192510 6.469440 -0.000001 -177.317000 22.334900 178.021000 -39.081100 -0.002282 -0.040193 0.003786 -0.000989 25.653100 -40.985400 0.000008 0.000006 8.617780 13.400500 -68.999700 -11.754300 -0.000006 -0.000006 -0.001081 -0.016547 -17.246000
0.000000 0.000000 0.000000 0.000000 0.000000 -0.000000 -5.385870 91.405400 -2.453410 85.760400 -2.333820 5.814440 15.735700 0.000005 -0.000001 73.556500 84.351200 -77.483600 8.984550 -0.406207 -0.000000 2.981470 -3.031170 -7.768140 16.377300 -0.000001 -0.000001 1.829880 -2.220430 5.015150 6.456720 -0.000001 -0.000000 -1.166620 2.475830 3.766640 12.994200 -0.242716 4.980390 -90.739600 2.161870 -71.109200 5.348090 -0.000007 -0.000001 -64.116800 -0.899333 -0.920841 24.328600 0.000019 0.000005 7.952890 17.244300 -25.232400 22.291600 -0.000001 0.000005 13.252300 5.231630 1.913420 12.994500 -0.242716 -4.980390 95.241300 -14.772500 -70.213500 -5.348130 -0.000001 -0.000004 -20.582700 -81.804800 -58.806600 -24.328900 0.000322 -0.000009 -12.702600 -12.601600 -45.938200 -22.291500 -0.000108 -0.000004 28.387100 5.560660 -9.064880 -2.192480 -6.469440 -0.000000 -167.139000 -15.892900 -4.198960 39.081100 -0.000007 -0.000012 -0.143505 0.263187 28.601900 40.985400 -0.000006 -0.000013 -2.742930 10.675900 -67.045200 11.754300 -0.000000 0.000003 -0.000167 -0.001589 -16.637800 -2.192510 6.469440 -0.000001 -177.418000 22.412900 177.951000 -39.081100 -0.002282 -0.040193 0.011774 -0.018001 25.177800 -40.985400 0.000008 0.000006 8.636160 12.844500 -68.713700 -11.754300 -0.000006 -0.000006 -0.001202 -0.018234 -17.314600
0.000000 0.000000 0.000000 0.000000 0.000000 -0.000000 -5.550960 91.519700 -2.477610 85.939500 -1.944880 5.405920 15.735700 0.000005 -0.000001 72.230100 84.503900 -76.139800 8.984550 -0.406207 -0.000000 2.609050 -3.176230 -7.740230 16.377300 -0.000001 -0.000001 2.592280 -2.794090 6.697590 6.456720 -0.000001 -0.000000 -1.169450 2.918370 2.886630 12.994200 -0.242716 4.980390 -90.492300 1.441850 -71.148000 5.348090 -0.000007 -0.000001 -64.574400 -1.911430 -0.322728 24.328600 0.000019 0.000005 8.283330 16.624600 -26.970200 22.291600 -0.000001 0.000005 14.089700 5.244930 1.566570 12.994500 -0.242716 -4.980390 96.372500 -15.818900 -67.721100 -5.348130 -0.000001 -0.000004 -67.521600 -83.304000 -110.642000 -24.328900 0.000322 -0.000009 -13.530700 -10.794500 -52.103200 -22.291500 -0.000108 -0.000004 34.871800 5.665360 -16.671000 -2.192480 -6.469440 -0.000000 -167.304000 -16.139200 -4.318170 39.081100 -0.000007 -0.000012 -0.140771 0.267395 27.764900 40.985400 -0.000006 -0.000013 -2.796580 11.228100 -66.509400 11.754300 -0.000000 0.000003 -0.000150 -0.001449 -16.632600 -2.192510 6.469440 -0.000001 -177.208000 22.160400 177.613000 -39.081100 -0.002282 -0.040193 0.012416 -0.019718 24.781500 -40.985400 0.000008 0.000006 8.650110 12.259800 -68.243800 -11.754300 -0.000006 -0.000006 -0.001458 -0.021710 -17.455900
0.000000 0.000000 0.000000 0.000000 0.000000 -0.000000 -5.748090 91.538300 -2.461400 85.931500 -1.587480 5.278360 15.735700 0.000005 -0.000001 69.667800 84.563800 -73.691000 8.984550 -0.406207 -0.000000 2.320170 -3.584000 -7.967430 16.377300 -0.000001 -0.000001 3.265000 -3.303600 7.667780 6.456720 -0.000001 -0.000000 -0.980494 2.951230 3.127640 12.994200 -0.242716 4.980390 -90.320500 0.943982 -71.243500 5.348090 -0.000007 -0.000001 -65.157800 -3.371010 0.859840 24.328600 0.000019 0.000005 8.325940 15.437500 -28.802000 22.291600 -0.000001 0.000005 15.662300 5.257860 1.224700 12.994500 -0.242716 -4.980390 96.478500 -14.989100 -66.295500 -5.348130 -0.000001 -0.000004 -66.138200 -81.111100 -110.213000 -24.328900 0.000322 -0.000009 -16.849600 -12.848700 -53.710600 -22.291500 -0.000108 -0.000004 34.476600 5.677970 -18.913100 -2.192480 -6.469440 -0.000000 -167.189000 -16.237200 -4.430190 39.081100 -0.000007 -0.000012 -0.134245 0.257163 27.565700 40.985400 -0.000006 -0.000013 -2.856720 11.648900 -66.324100 11.754300 -0.000000 0.000003 -0.000168 -0.001600 -16.638200 -2.192510 6.469440 -0.000001 -177.139000 22.936500 177.585000 -39.081100 -0.002282 -0.040193 0.012109 -0.019164 24.655300 -40.985400 0.000008 0.000006 8.756750 12.654600 -68.205200 -11.754300 -0.000006 -0.000006 -0.001295 -0.019509 -17.366400
0.000000 0.000000 0.000000 0.000000 0.000000 -0.000000 -5.871610 91.446900 -2.457410 85.493800 -1.524770 5.444540 15.735700 0.000005 -0.000001 68.426400 84.443100 -72.535700 8.984550 -0.406207 -0.000000 2.448250 -3.892870 -8.129030 16.377300 -0.000001 -0.000001 3.134720 -3.430850 7.147230 6.456720 -0.000001 -0.000000 -0.904773 2.339450 3.500870 12.994200 -0.242716 4.980390 -90.415000 1.214770 -71.137100 5.348090 -0.000007 -0.000001 -64.988000 -3.032370 1.237760 24.328600 0.000019 0.000005 6.940700 12.580500 -29.200300 22.291600 -0.000001 0.000005 17.244600 5.280230 0.620504 12.994500 -0.242716 -4.980390 95.759600 -13.772400 -67.038800 -5.348130 -0.000001 -0.000004 -24.753000 -78.653500 -64.635100 -24.328900 0.000322 -0.000009 -15.345500 -13.924100 -48.749900 -22.291500 -0.000108 -0.000004 30.500600 5.663680 -16.385800 -2.192480 -6.469440 -0.000000 -166.659000 -15.700000 -4.651470 39.081100 -0.000007 -0.000012 -0.147972 0.274986 28.285200 40.985400 -0.000006 -0.000013 -2.986500 11.322200 -66.678200 11.754300 -0.000000 0.000003 -0.000175 -0.001653 -16.640100 -2.192510 6.469440 -0.000001 -176.898000 23.894800 177.732000 -39.081100 -0.002282 -0.040193 0.011895 -0.018491 24.898900 -40.985400 0.000008 0.000006 8.757140 13.517500 -68.357400 -11.754300 -0.000006 -0.000006 -0.001632 -0.024012 -17.549500
